<?xml version="1.0" standalone="no"?><!DOCTYPE svg PUBLIC "-//W3C//DTD SVG 1.1//EN" "http://www.w3.org/Graphics/SVG/1.1/DTD/svg11.dtd"><svg t="1732844621202" class="icon" viewBox="0 0 1024 1024" version="1.1" xmlns="http://www.w3.org/2000/svg" p-id="9247" xmlns:xlink="http://www.w3.org/1999/xlink" width="1024" height="1024"><path d="M200.96 310.72S132.032 376.768 128.256 446.592v13.056c3.008 56.384 45.568 89.6 45.568 89.6 68.288 66.816 233.664 150.848 272.512 169.856 0 0 2.24 1.152 3.712-0.384l0.768-1.472v-1.472c-106.048-231.104-249.728-405.12-249.728-405.12l-0.128 0.064z m223.296 465.152c-0.768-3.008-3.712-3.008-3.712-3.008l-275.52 9.728c29.824 53.376 80.256 94.4 132.864 82.112 35.84-9.344 118.016-66.432 144.896-85.888 2.24-1.856 1.472-3.328 1.472-3.328v0.384z m3.008-29.12c-120.96-81.792-355.456-206.848-355.456-206.848A168.32 168.32 0 0 0 64 588.48v2.56c0 40 14.912 67.968 14.912 67.968a163.456 163.456 0 0 0 87.36 82.112c26.176 11.2 52.288 11.584 52.288 11.584 4.48 0.768 164.224 0 206.784 0 1.92 0 3.008-1.92 3.008-1.92v-2.176c0-1.152-1.088-1.92-1.088-1.92v0.064z m-25.024-546.176a127.68 127.68 0 0 0-96 117.568v15.36c1.152 22.4 6.016 39.168 6.016 39.168 24.64 108.288 144.064 285.568 169.856 322.944 1.92 1.856 3.712 1.088 3.712 1.088a3.712 3.712 0 0 0 2.24-3.712C527.68 297.28 446.72 192 446.72 192c-11.968 0.768-44.416 8.576-44.416 8.576h-0.064z m309.824 84.736s-18.304-67.2-91.072-85.12c0 0-21.312-5.184-43.712-8.192 0 0-81.344 104.896-41.792 501.376 0.384 2.56 2.24 2.944 2.24 2.944 2.56 1.152 3.712-1.088 3.712-1.088 26.88-38.464 145.6-215.04 169.856-322.56 0 0 13.44-52.288 0.768-87.36z m-108.992 487.936s-2.624 0-3.392 1.92c0 0-0.32 2.56 1.152 3.648 26.112 19.072 106.368 74.688 144.832 85.888 0 0 5.952 1.92 16 2.24h5.312c25.728-0.768 70.912-13.824 112-84.352l-276.288-9.344h0.384z m292.288-313.984c5.248-76.864-72.448-148.16-72.448-148.544 0 0-143.68 173.952-248.96 403.2 0 0-1.152 2.944 0.768 4.8l1.472 0.384h2.24c39.552-19.776 203.84-103.424 271.744-169.472 0 0 42.944-34.752 45.184-90.368z m56.768 79.936s-234.432 125.76-355.392 207.168c0 0-1.92 1.472-1.152 4.096 0 0 1.152 2.24 2.624 2.24 43.328 0 207.552 0 211.648-0.768 0 0 21.312-0.704 47.424-10.816 0 0 58.24-18.624 88.512-84.736 0 0 27.2-54.144 6.336-117.184z" p-id="9248"></path></svg>